<?xml version="1.0" encoding="iso-8859-1"?>
<!-- Generator: Adobe Illustrator 16.0.0, SVG Export Plug-In . SVG Version: 6.00 Build 0)  -->
<!DOCTYPE svg PUBLIC "-//W3C//DTD SVG 1.1//EN" "http://www.w3.org/Graphics/SVG/1.1/DTD/svg11.dtd">
<svg version="1.1" id="Capa_1" xmlns="http://www.w3.org/2000/svg" xmlns:xlink="http://www.w3.org/1999/xlink" x="0px" y="0px"
	 width="100%" height="569.695px" viewBox="0 0 569.695 569.695" style="enable-background:new 0 0 569.695 569.695;"
	 preserveAspectRatio="none" stroke="white" stroke-width="2"
       >
<g>
	<g fill="#171830" >
		<path d="M445.866,543.562V26.144C445.866,11.733,434.142,0,419.741,0H149.973c-14.42,0-26.144,11.733-26.144,26.144v517.417
			c0,14.41,11.733,26.134,26.144,26.134h269.768C434.142,569.695,445.866,557.972,445.866,543.562z M138.164,543.562V26.144
			c0-6.502,5.288-11.8,11.8-11.8h269.768c6.502,0,11.78,5.298,11.78,11.8v517.417c0,6.502-5.288,11.79-11.78,11.79H149.973
			C143.452,555.352,138.164,550.063,138.164,543.562z"/>
		<path d="M269.237,36.452c4.581,1.387,10.442,2.085,17.442,2.085s12.871-0.698,17.441-2.085c3.061-0.927,4.074-2.964,3.997-4.561
			c-0.057-1.673-1.329-3.72-4.666-4.428c-3.682-0.774-9.582-1.73-16.716-1.874l-1.415-0.01c-6.665,0-12.125,0.938-15.5,1.721
			c-3.309,0.756-4.542,2.831-4.59,4.533C265.173,33.459,266.196,35.534,269.237,36.452z M286.65,30.38
			c2.812,0.058,5.422,0.239,7.756,0.498c4.273,0.468,4.312,2.123,0.038,2.543c-2.372,0.229-4.964,0.344-7.765,0.344
			c-2.879,0-5.537-0.124-7.966-0.363c-4.38-0.44-4.647-2.199-0.66-2.639c2.17-0.239,4.609-0.392,7.258-0.392L286.65,30.38z"/>
		<path d="M402.873,40.363c4.581,0,8.31-3.729,8.31-8.31c0-4.571-3.738-8.3-8.31-8.3c-4.58,0-8.31,3.729-8.31,8.3
			C394.563,36.644,398.302,40.363,402.873,40.363z M402.873,28.535c1.941,0,3.528,1.578,3.528,3.519
			c0,1.951-1.587,3.528-3.528,3.528s-3.528-1.587-3.528-3.528C399.344,30.112,400.931,28.535,402.873,28.535z"/>
	</g>
</g>
<g>
</g>
<g>
</g>
<g>
</g>
<g>
</g>
<g>
</g>
<g>
</g>
<g>
</g>
<g>
</g>
<g>
</g>
<g>
</g>
<g>
</g>
<g>
</g>
<g>
</g>
<g>
</g>
<g>
</g>
</svg>
