<?xml version="1.0" standalone="no"?>
<!DOCTYPE svg PUBLIC "-//W3C//DTD SVG 20010904//EN"
 "http://www.w3.org/TR/2001/REC-SVG-20010904/DTD/svg10.dtd">
<svg version="1.0" xmlns="http://www.w3.org/2000/svg"
 width="100%" height="1280.000000pt" viewBox="0 0 706.000000 1280.000000"
 preserveAspectRatio="none">
<metadata>
Created by potrace 1.15, written by Peter Selinger 2001-2017
</metadata>
<g transform="translate(0.000000,1280.000000) scale(0.100000,-0.100000)"
fill="#000000" stroke="none">
<path d="M835 12793 c-16 -2 -61 -13 -100 -25 -307 -90 -544 -368 -638 -748
-20 -81 -21 -116 -24 -792 -3 -462 -7 -708 -14 -708 -5 0 -21 -12 -34 -26
l-25 -27 0 -229 0 -229 25 -24 c13 -14 29 -25 35 -25 6 0 10 -72 10 -213 l0
-214 -24 -12 c-44 -24 -46 -43 -46 -417 l0 -355 25 -24 c13 -14 29 -25 35 -25
6 0 10 -51 10 -145 0 -94 -4 -145 -10 -145 -6 0 -22 -11 -35 -25 l-25 -24 0
-355 c0 -374 2 -393 46 -417 l24 -12 3 -3356 c3 -3127 4 -3361 20 -3424 100
-400 328 -671 647 -769 l75 -23 2665 -3 c2370 -2 2674 -1 2742 13 165 33 305
112 429 242 171 180 271 405 299 674 7 68 10 1352 10 3935 l0 3834 25 0 c14 0
37 11 50 25 l25 24 0 356 c0 252 -3 363 -12 378 -16 30 -39 46 -65 47 l-23 0
0 1119 c0 703 -4 1157 -10 1220 -15 144 -51 276 -110 398 -107 225 -280 397
-477 478 -145 58 32 55 -2855 54 -1454 -1 -2656 -4 -2673 -6z m2748 -291 c20
-20 27 -39 27 -66 0 -48 -13 -72 -52 -92 -85 -44 -178 49 -134 134 20 40 41
51 92 52 31 0 46 -6 67 -28z m-1352 -408 c37 -35 46 -82 25 -126 -40 -85 -159
-89 -201 -8 -59 115 83 223 176 134z m2019 -53 c15 -29 12 -62 -7 -83 -15 -17
-51 -18 -711 -18 -633 0 -697 1 -714 17 -20 18 -23 54 -8 84 10 19 29 19 720
19 691 0 710 0 720 -19z m2540 -5641 l0 -4960 -3280 0 -3280 0 0 4960 0 4960
3280 0 3280 0 0 -4960z m-3145 -5212 c115 -29 250 -137 307 -244 122 -227 48
-517 -165 -655 -97 -63 -170 -82 -295 -77 -99 3 -113 6 -185 40 -186 89 -290
253 -290 458 1 148 47 255 156 357 82 77 171 120 282 136 39 6 140 -2 190 -15z"/>
</g>
</svg>
