<?xml version="1.0" encoding="iso-8859-1"?>
<!-- Generator: Adobe Illustrator 19.0.0, SVG Export Plug-In . SVG Version: 6.00 Build 0)  -->
<svg version="1.1" id="Layer_1" xmlns="http://www.w3.org/2000/svg" xmlns:xlink="http://www.w3.org/1999/xlink" x="0px" y="0px"
	 viewBox="0 0 460 460" style="enable-background:new 0 0 460 460;" xml:space="preserve">
<g id="XMLID_1560_">
	<g id="Canvas">
		<path id="XMLID_899_" style="fill:#F7C843;" d="M120.312,452.678l-67.99-67.99C47.634,379.999,45,373.641,45,367.01V40
			C45,17.909,62.909,0,85,0h290c22.091,0,40,17.909,40,40v380c0,22.091-17.909,40-40,40H137.99
			C131.36,460,125.001,457.366,120.312,452.678z"/>
		<path id="XMLID_901_" style="fill:#E0AF34;" d="M369.119,460H155v-90l216.129,78.592c2.324,0.845,3.871,3.054,3.871,5.527l0,0
			C375,457.367,372.367,460,369.119,460z"/>
		<path id="XMLID_900_" style="fill:#FCDB70;" d="M120.312,452.678l-67.99-67.99C47.634,379.999,45,373.641,45,367.01V340h80
			c22.091,0,40,17.909,40,40v80h-27.01C131.36,460,125.001,457.366,120.312,452.678z"/>
		<path id="XMLID_898_" style="fill:#E0AF34;" d="M415,131.5V180v120L54.585,192.85C48.899,191.159,45,185.932,45,180v-48.5H415z"/>
	</g>
	<g id="Roll">
		<path id="XMLID_1548_" style="fill:#515056;" d="M400,125V55c0-2.761,2.239-5,5-5h15c22.091,0,40,17.909,40,40l0,0
			c0,22.091-17.909,40-40,40h-15C402.239,130,400,127.761,400,125z"/>
		<path id="XMLID_896_" style="fill:#F7C843;" d="M20,140V40C20,17.909,37.909,0,60,0h340c22.091,0,40,17.909,40,40v100
			c0,22.091-17.909,40-40,40H60C37.909,180,20,162.091,20,140z"/>
		<path id="XMLID_894_" style="fill:#E0AF34;" d="M20,150V30C20,13.431,33.431,0,50,0l0,0c16.569,0,30,13.431,30,30v120
			c0,16.569-13.431,30-30,30l0,0C33.431,180,20,166.569,20,150z"/>
		<path id="XMLID_897_" style="fill:#FCDB70;" d="M370,130H150c-22.091,0-40-17.909-40-40l0,0c0-22.091,17.909-40,40-40h220
			c22.091,0,40,17.909,40,40l0,0C410,112.091,392.091,130,370,130z"/>
		<path id="XMLID_1549_" style="fill:#C67B18;" d="M20,140V40c0-11.046,8.954-20,20-20l0,0c11.046,0,20,8.954,20,20v100
			c0,11.046-8.954,20-20,20l0,0C28.954,160,20,151.046,20,140z"/>
		<path id="XMLID_1551_" style="fill:#515056;" d="M40,130c-22.091,0-40-17.909-40-40l0,0c0-22.091,17.909-40,40-40h20v80H40z"/>
		<path id="XMLID_1550_" style="fill:#3C3B42;" d="M40,50h20v80l0,0c-5.713,0-10.532-4.254-11.24-9.923L40,50z"/>
	</g>
</g>
<g>
</g>
<g>
</g>
<g>
</g>
<g>
</g>
<g>
</g>
<g>
</g>
<g>
</g>
<g>
</g>
<g>
</g>
<g>
</g>
<g>
</g>
<g>
</g>
<g>
</g>
<g>
</g>
<g>
</g>
</svg>
