<?xml version="1.0" encoding="iso-8859-1"?>
<!-- Generator: Adobe Illustrator 19.0.0, SVG Export Plug-In . SVG Version: 6.00 Build 0)  -->
<svg version="1.1" id="Layer_1" xmlns="http://www.w3.org/2000/svg" xmlns:xlink="http://www.w3.org/1999/xlink" x="0px" y="0px"
	 viewBox="0 0 512 512" style="enable-background:new 0 0 512 512;" xml:space="preserve">
<path style="fill:#171830;" d="M390.467,315.513h-99.478V45.189c0-19.324-15.665-34.989-34.989-34.989s-34.989,15.665-34.989,34.989
	v270.325h-99.478c-14.309,0-25.91,11.601-25.91,25.91c0,6.872,2.73,13.462,7.589,18.322l134.467,134.467
	c5.059,5.059,11.69,7.588,18.321,7.588c6.631,0,13.262-2.529,18.322-7.589l134.467-134.467c4.859-4.859,7.589-11.45,7.589-18.322
	C416.377,327.114,404.777,315.513,390.467,315.513z"/>
<g>
	<path style="fill:#ffffff;" d="M256,512c-9.644,0-18.712-3.756-25.533-10.577L95.999,366.957
		c-6.82-6.821-10.576-15.889-10.576-25.534c0-19.911,16.198-36.109,36.109-36.109h89.279V45.189C210.811,20.271,231.082,0,256,0
		c24.918,0,45.189,20.271,45.189,45.189v260.125h89.279c19.911,0,36.109,16.198,36.109,36.109c0,9.644-3.756,18.712-10.575,25.533
		L281.534,501.423C274.712,508.244,265.644,512,256,512z M121.533,325.713c-8.663,0-15.711,7.048-15.711,15.711
		c0,4.196,1.635,8.142,4.602,11.111L244.891,487c2.967,2.968,6.913,4.602,11.11,4.602c4.197,0,8.142-1.635,11.111-4.602
		l134.466-134.466c2.967-2.967,4.602-6.913,4.602-11.11c0-8.663-7.048-15.711-15.711-15.711h-99.478
		c-5.632,0-10.199-4.566-10.199-10.199V45.189C280.79,31.52,269.669,20.398,256,20.398c-13.669,0-24.79,11.121-24.79,24.79v270.324
		c0,5.633-4.567,10.199-10.199,10.199h-99.478V325.713z"/>
	<path style="fill:#ffffff;" d="M340.427,399.809c-2.611,0-5.22-0.995-7.212-2.987c-3.983-3.983-3.983-10.441,0-14.425l2.266-2.266
		c3.984-3.983,10.44-3.983,14.425,0c3.983,3.983,3.983,10.441,0,14.425l-2.266,2.266
		C345.647,398.813,343.038,399.809,340.427,399.809z"/>
	<path style="fill:#ffffff;" d="M257.647,482.422c-2.611,0-5.22-0.995-7.212-2.987c-3.983-3.983-3.983-10.441,0-14.424
		l59.666-59.666c3.984-3.983,10.44-3.984,14.425,0c3.983,3.983,3.983,10.441,0,14.425l-59.666,59.666
		C262.867,481.426,260.258,482.422,257.647,482.422z"/>
</g>
<g>
</g>
<g>
</g>
<g>
</g>
<g>
</g>
<g>
</g>
<g>
</g>
<g>
</g>
<g>
</g>
<g>
</g>
<g>
</g>
<g>
</g>
<g>
</g>
<g>
</g>
<g>
</g>
<g>
</g>
</svg>
